<?xml version="1.0" encoding="UTF-8" standalone="no"?>
<svg
   xmlns:dc="http://purl.org/dc/elements/1.1/"
   xmlns:cc="http://creativecommons.org/ns#"
   xmlns:rdf="http://www.w3.org/1999/02/22-rdf-syntax-ns#"
   xmlns:svg="http://www.w3.org/2000/svg"
   xmlns="http://www.w3.org/2000/svg"
   xmlns:xlink="http://www.w3.org/1999/xlink"
   xmlns:sodipodi="http://sodipodi.sourceforge.net/DTD/sodipodi-0.dtd"
   xmlns:inkscape="http://www.inkscape.org/namespaces/inkscape"
   width="475"
   height="320"
   viewBox="0 0 125.67708 84.666669"
   version="1.1"
   id="svg8"
   inkscape:version="1.0.2-2 (e86c870879, 2021-01-15)"
   sodipodi:docname="logo_dark.svg"
   inkscape:export-filename="C:\Users\Pedro Paulo\Documents\Império Suzuki\referencia\logo.png"
   inkscape:export-xdpi="768"
   inkscape:export-ydpi="768">
  <defs
     id="defs2">
    <linearGradient
       inkscape:collect="always"
       id="linearGradient949">
      <stop
         style="stop-color:#ffffff;stop-opacity:1"
         offset="0"
         id="stop945" />
      <stop
         style="stop-color:#898989;stop-opacity:1"
         offset="1"
         id="stop947" />
    </linearGradient>
    <linearGradient
       inkscape:collect="always"
       id="linearGradient943">
      <stop
         style="stop-color:#ffffff;stop-opacity:1"
         offset="0"
         id="stop939" />
      <stop
         style="stop-color:#818181;stop-opacity:1"
         offset="1"
         id="stop941" />
    </linearGradient>
    <pattern
       id="EMFhbasepattern"
       patternUnits="userSpaceOnUse"
       width="6"
       height="6"
       x="0"
       y="0" />
    <linearGradient
       inkscape:collect="always"
       xlink:href="#linearGradient949"
       id="linearGradient1557"
       gradientUnits="userSpaceOnUse"
       gradientTransform="translate(-67.033571,-26.552828)"
       x1="420.69238"
       y1="46.259808"
       x2="420.69238"
       y2="60.759182" />
    <linearGradient
       inkscape:collect="always"
       xlink:href="#linearGradient943"
       id="linearGradient1559"
       gradientUnits="userSpaceOnUse"
       gradientTransform="matrix(0.75956671,0,0,1,911.59538,12.33083)"
       x1="563.82446"
       y1="36.044834"
       x2="563.82446"
       y2="95.89637" />
  </defs>
  <sodipodi:namedview
     id="base"
     pagecolor="#ffffff"
     bordercolor="#666666"
     borderopacity="1.0"
     inkscape:pageopacity="0.0"
     inkscape:pageshadow="2"
     inkscape:zoom="0.175"
     inkscape:cx="2610.2119"
     inkscape:cy="355.5141"
     inkscape:document-units="px"
     inkscape:current-layer="layer1"
     inkscape:document-rotation="0"
     showgrid="false"
     inkscape:showpageshadow="false"
     borderlayer="true"
     units="px"
     inkscape:snap-global="false"
     inkscape:window-width="1920"
     inkscape:window-height="1018"
     inkscape:window-x="-8"
     inkscape:window-y="-8"
     inkscape:window-maximized="1"
     inkscape:snap-bbox="true"
     inkscape:bbox-paths="true"
     inkscape:bbox-nodes="true"
     inkscape:snap-bbox-edge-midpoints="true"
     inkscape:snap-bbox-midpoints="true"
     inkscape:snap-nodes="true"
     inkscape:object-paths="true"
     inkscape:snap-intersection-paths="true"
     inkscape:snap-smooth-nodes="true"
     inkscape:snap-midpoints="true"
     inkscape:snap-object-midpoints="true"
     inkscape:snap-center="true"
     inkscape:snap-text-baseline="true"
     inkscape:snap-page="true"
     fit-margin-top="0"
     fit-margin-left="0"
     fit-margin-right="0"
     fit-margin-bottom="0" />
  <metadata
     id="metadata5">
    <rdf:RDF>
      <cc:Work
         rdf:about="">
        <dc:format>image/svg+xml</dc:format>
        <dc:type
           rdf:resource="http://purl.org/dc/dcmitype/StillImage" />
        <dc:title></dc:title>
      </cc:Work>
    </rdf:RDF>
  </metadata>
  <g
     inkscape:label="Layer 1"
     inkscape:groupmode="layer"
     id="layer1"
     transform="translate(-4.8947916,-25.4)">
    <g
       id="g1555"
       transform="matrix(0.92773436,0,0,0.91428569,4.8947715,25.400001)"
       style="stroke-width:1.08579"
       inkscape:export-filename="C:\Users\Pedro Paulo\Documents\Império Suzuki\referencia\output\identidade-visual-square-dark-gradient.png"
       inkscape:export-xdpi="768"
       inkscape:export-ydpi="768">
      <g
         id="g1553"
         transform="matrix(0.67368421,0,0,0.68359375,7.3339716e-6,-1.157026e-7)"
         style="stroke-width:1.60001">
        <g
           id="g1551"
           transform="matrix(6.4366304,0,0,6.4252045,-2175.4617,-81.623342)"
           style="stroke-width:0.248798">
          <path
             id="path1547"
             style="color:#000000;font-style:normal;font-variant:normal;font-weight:normal;font-stretch:normal;font-size:medium;line-height:normal;font-family:sans-serif;font-variant-ligatures:normal;font-variant-position:normal;font-variant-caps:normal;font-variant-numeric:normal;font-variant-alternates:normal;font-variant-east-asian:normal;font-feature-settings:normal;font-variation-settings:normal;text-indent:0;text-align:start;text-decoration:none;text-decoration-line:none;text-decoration-style:solid;text-decoration-color:#000000;letter-spacing:normal;word-spacing:normal;text-transform:none;writing-mode:lr-tb;direction:ltr;text-orientation:mixed;dominant-baseline:auto;baseline-shift:baseline;text-anchor:start;white-space:normal;shape-padding:0;shape-margin:0;inline-size:0;clip-rule:nonzero;display:inline;overflow:visible;visibility:visible;isolation:auto;mix-blend-mode:normal;color-interpolation:sRGB;color-interpolation-filters:linearRGB;solid-color:#000000;solid-opacity:1;vector-effect:none;fill:url(#linearGradient1557);fill-opacity:1;fill-rule:nonzero;stroke:none;stroke-width:0.248798;stroke-linecap:butt;stroke-linejoin:miter;stroke-miterlimit:4;stroke-dasharray:none;stroke-dashoffset:0;stroke-opacity:1;color-rendering:auto;image-rendering:auto;shape-rendering:auto;text-rendering:auto;enable-background:accumulate;stop-color:#000000"
             d="m 348.39827,22.428331 v 9.061389 c -0.0238,1.070152 -0.0812,1.759582 -0.93379,2.297533 h 4.51395 c -0.85259,-0.537951 -0.91009,-1.227381 -0.93379,-2.297533 V 20.727438 Z m 7.76079,-1.700893 V 31.48972 c -0.0238,1.070152 -0.0812,1.759582 -0.93379,2.297533 h 4.51392 C 358.8866,33.249302 358.8291,32.559872 358.8054,31.48972 v -9.061389 z"
             sodipodi:nodetypes="cccccccccccccc" />
          <path
             id="path1549"
             style="fill:url(#linearGradient1559);fill-opacity:1;stroke:none;stroke-width:0.248798px;stroke-linecap:butt;stroke-linejoin:miter;stroke-opacity:1"
             d="M 1331.6973,48.013672 1322.627,55.625 c 1.5787,4.911519 3.9852,9.325493 6.75,13.525391 -12.817,17.599056 -28.5661,26.207381 -50.8301,32.830079 9.6629,0.95657 19.3463,-2.802835 28.0058,-5.302736 -7.7158,4.570126 -19.4174,7.904816 -29.1425,11.152346 12.0212,-1.37465 22.5283,-4.49658 31.6953,-8.853518 1.6575,-0.787789 3.2708,-1.616978 4.8418,-2.482421 8.7748,-4.834194 16.2152,-10.83228 22.5,-17.464844 13.6325,14.386953 32.701,25.789203 59.0371,28.800783 -9.7251,-3.24753 -21.4248,-6.58222 -29.1406,-11.152346 9.653,2.616726 18.7701,6.372376 28.0039,5.302736 -17.4307,-5.184963 -30.8577,-11.609117 -42.0215,-22.589845 -0.7618,-0.749287 -1.5138,-1.519484 -2.2559,-2.310547 -0.034,-0.0365 -0.067,-0.07473 -0.1015,-0.111328 -0.7029,-0.751866 -1.3966,-1.52388 -2.0821,-2.316406 -0.1605,-0.186491 -0.317,-0.38149 -0.4765,-0.570313 -0.5697,-0.670853 -1.1374,-1.347228 -1.6954,-2.048828 -0.5731,-0.723323 -1.1377,-1.472003 -1.6992,-2.228515 -0.1646,-0.221599 -0.3344,-0.429647 -0.498,-0.654297 2.7648,-4.199898 5.1732,-8.613872 6.7519,-13.525391 l -1.7734,-1.488281 -7.2988,-6.121094 c -1.124,3.874961 -2.4483,7.670357 -4.75,11.074219 -2.3021,-3.404387 -3.6259,-7.200588 -4.75,-11.076172 z"
             transform="scale(0.26458334)" />
        </g>
      </g>
    </g>
  </g>
</svg>
